<svg width="75" height="75" viewBox="0 0 75 75" fill="none" xmlns="http://www.w3.org/2000/svg">
<circle cx="37.5" cy="37.5" r="37.5" fill="#FCCB1D"/>
<g clip-path="url(#clip0_83_69)">
<path d="M39.7951 16.2047C38.5256 14.9352 36.4639 14.9352 35.1943 16.2047L18.9443 32.4547C17.6748 33.7242 17.6748 35.786 18.9443 37.0555C20.2139 38.325 22.2756 38.325 23.5451 37.0555L34.2498 26.3406V57.5C34.2498 59.2977 35.7021 60.75 37.4998 60.75C39.2975 60.75 40.7498 59.2977 40.7498 57.5V26.3406L51.4545 37.0453C52.724 38.3149 54.7857 38.3149 56.0553 37.0453C57.3248 35.7758 57.3248 33.7141 56.0553 32.4446L39.8053 16.1946L39.7951 16.2047Z" fill="#313638"/>
</g>
<defs>
<clipPath id="clip0_83_69">
<rect width="39" height="52" fill="white" transform="translate(18 12)"/>
</clipPath>
</defs>
</svg>
